<mxfile host="app.diagrams.net" modified="2023-11-19T02:22:21.456Z" agent="Mozilla/5.0 (Windows NT 10.0; Win64; x64) AppleWebKit/537.36 (KHTML, like Gecko) Chrome/119.0.0.0 Safari/537.36" version="22.1.3" etag="N5qJ8_bkrSGKZ333qb3X" type="github">
  <diagram name="Page-1" id="OPlVekG7EvOGEbMsR3vl">
    <mxGraphModel>
      <root>
        <mxCell id="0" />
        <mxCell id="1" parent="0" />
      </root>
    </mxGraphModel>
  </diagram>
</mxfile>
